<?xml version="1.0" standalone="no"?>
<!DOCTYPE svg PUBLIC "-//W3C//DTD SVG 20010904//EN"
 "http://www.w3.org/TR/2001/REC-SVG-20010904/DTD/svg10.dtd">
<svg version="1.0" xmlns="http://www.w3.org/2000/svg"
 width="416.000000pt" height="416.000000pt" viewBox="0 0 416.000000 416.000000"
 preserveAspectRatio="xMidYMid meet">
<metadata>
Created by potrace 1.14, written by Peter Selinger 2001-2017
</metadata>
<g transform="translate(0.000000,416.000000) scale(0.100000,-0.100000)"
fill="#000000" stroke="none">
<path d="M1900 3859 c-253 -28 -505 -109 -713 -231 -467 -272 -777 -722 -872
-1263 -20 -110 -27 -350 -14 -465 45 -405 216 -772 493 -1058 694 -717 1830
-731 2537 -32 53 52 117 122 143 155 25 33 51 65 56 72 29 35 103 159 143 238
59 119 73 152 108 265 58 185 79 319 84 515 13 597 -288 1171 -788 1506 -228
153 -480 251 -742 289 -101 15 -337 19 -435 9z"/>
</g>
</svg>
